<?xml version="1.0" encoding="UTF-8" standalone="no"?>
<!-- Generator: Adobe Illustrator 24.2.0, SVG Export Plug-In . SVG Version: 6.00 Build 0)  -->

<svg
   xmlns:dc="http://purl.org/dc/elements/1.1/"
   xmlns:cc="http://creativecommons.org/ns#"
   xmlns:rdf="http://www.w3.org/1999/02/22-rdf-syntax-ns#"
   xmlns:svg="http://www.w3.org/2000/svg"
   xmlns="http://www.w3.org/2000/svg"
   xmlns:sodipodi="http://sodipodi.sourceforge.net/DTD/sodipodi-0.dtd"
   xmlns:inkscape="http://www.inkscape.org/namespaces/inkscape"
   version="1.1"
   id="Layer_1"
   x="0px"
   y="0px"
   viewBox="0 0 50.099998 14.7"
   xml:space="preserve"
   sodipodi:docname="gallery.svg"
   width="50.099998"
   height="14.7"
   inkscape:version="0.92.4 (5da689c313, 2019-01-14)"><metadata
   id="metadata23"><rdf:RDF><cc:Work
       rdf:about=""><dc:format>image/svg+xml</dc:format><dc:type
         rdf:resource="http://purl.org/dc/dcmitype/StillImage" /><dc:title></dc:title></cc:Work></rdf:RDF></metadata><defs
   id="defs21" /><sodipodi:namedview
   pagecolor="#ffffff"
   bordercolor="#666666"
   borderopacity="1"
   objecttolerance="10"
   gridtolerance="10"
   guidetolerance="10"
   inkscape:pageopacity="0"
   inkscape:pageshadow="2"
   inkscape:window-width="1715"
   inkscape:window-height="889"
   id="namedview19"
   showgrid="false"
   inkscape:pagecheckerboard="true"
   fit-margin-top="0"
   fit-margin-left="0"
   fit-margin-right="0"
   fit-margin-bottom="0"
   inkscape:zoom="3.3712566"
   inkscape:cx="23.818362"
   inkscape:cy="-4.389132"
   inkscape:window-x="0"
   inkscape:window-y="0"
   inkscape:window-maximized="0"
   inkscape:current-layer="Layer_1" />
<g
   id="g16"
   transform="translate(-72,-151.1)">
	<path
   d="M 79.6,165.8 H 72 v -14.7 h 7.6 z M 77.3,158 c 0.1,0 0.1,-0.1 0.2,-0.2 0.1,-0.1 0.1,-0.3 0.1,-0.4 0,-0.1 0,-0.2 -0.1,-0.3 -0.1,-0.1 -0.1,-0.2 -0.2,-0.3 -0.1,-0.1 -0.2,-0.2 -0.3,-0.3 -0.1,-0.1 -0.2,-0.2 -0.2,-0.2 -0.1,-0.1 -0.3,-0.3 -0.6,-0.3 -0.2,-0.1 -0.5,-0.1 -0.9,-0.1 -0.2,0 -0.3,0.1 -0.6,0.2 -0.2,0.1 -0.4,0.3 -0.6,0.5 -0.2,0.3 -0.4,0.6 -0.5,1 -0.1,0.4 -0.2,0.9 -0.2,1.4 0,0.5 0.1,1.1 0.3,1.4 0.2,0.4 0.4,0.7 0.6,0.9 0.2,0.2 0.5,0.4 0.8,0.5 0.3,0.1 0.5,0.1 0.6,0.1 0.1,0 0.3,0 0.5,-0.1 0.2,-0.1 0.4,-0.2 0.5,-0.3 0.2,-0.1 0.3,-0.2 0.4,-0.3 0.1,-0.1 0.2,-0.2 0.2,-0.2 0,0 0,-0.1 0,-0.3 0,-0.1 0,-0.2 0,-0.4 0,-0.1 0,-0.2 0,-0.4 0,-0.1 0,-0.2 0,-0.3 0,-0.1 0,-0.2 0,-0.3 0,-0.1 0,-0.2 0,-0.3 0,-0.1 0,-0.2 -0.1,-0.2 -0.1,-0.1 -0.1,-0.1 -0.2,-0.2 0,0 -0.1,0 -0.1,-0.1 0,0 0,0 0,-0.1 0,0 0,0 0,0 -0.1,0.1 -0.1,0.2 -0.2,0.2 -0.1,0 -0.1,0.1 -0.2,0.1 -0.1,0 -0.2,0.1 -0.3,0.1 -0.2,0 -0.4,0 -0.5,0 -0.1,0 -0.2,0.1 -0.3,0.2 -0.1,0.2 0,0.3 0.1,0.4 0.1,0.1 0.2,0.2 0.3,0.2 0.1,0 0.1,0 0.2,0 0.1,0 0.1,-0.1 0.2,-0.1 0.1,0 0.1,-0.1 0.1,-0.1 0,0 0,0 0.1,0 0.1,0.1 0.1,0.1 0.2,0.2 0.1,0.1 0.1,0.3 0,0.5 -0.1,0.3 -0.2,0.5 -0.4,0.6 -0.2,0.2 -0.4,0.2 -0.8,0.2 -0.2,0 -0.3,-0.1 -0.5,-0.2 -0.2,-0.1 -0.4,-0.3 -0.5,-0.4 -0.2,-0.2 -0.3,-0.4 -0.4,-0.6 -0.1,-0.2 -0.2,-0.4 -0.2,-0.7 0,-0.2 0,-0.5 0,-0.7 0,-0.2 0,-0.5 0.1,-0.7 0,-0.2 0.1,-0.4 0.2,-0.6 0.1,-0.2 0.2,-0.3 0.3,-0.4 0.3,-0.2 0.5,-0.3 0.7,-0.3 0.2,0 0.4,0 0.6,0.1 0.2,0.1 0.3,0.2 0.4,0.3 0.1,0.2 0.2,0.3 0.3,0.3 0.1,0.1 0.1,0.2 0.1,0.3 0,0.1 0,0.2 0.2,0.3 0.4,0.5 0.5,0.5 0.6,0.4 z m -2.8,1 c 0,0.4 0.1,0.7 0.2,0.9 0.1,0.2 0.2,0.4 0.3,0.5 0.1,0.1 0.2,0.2 0.3,0.3 0.1,0 0.2,0.1 0.2,0.1 0,0 0.1,0 0.2,-0.1 0,-0.1 0.1,-0.1 0.2,-0.2 -0.1,0 -0.1,0 -0.2,0 -0.1,0 -0.1,0 -0.2,0 -0.1,0 -0.1,-0.1 -0.2,-0.1 -0.1,-0.1 -0.3,-0.2 -0.4,-0.4 -0.1,-0.2 -0.2,-0.5 -0.2,-1 0,-0.2 0,-0.5 0,-0.7 0,-0.2 0.1,-0.4 0.1,-0.5 0.1,-0.2 0.1,-0.3 0.2,-0.5 -0.1,0.1 -0.2,0.3 -0.3,0.4 -0.1,0.2 -0.1,0.3 -0.2,0.6 0,0.1 0,0.4 0,0.7 z m 1.3,-3.5 c 0,0 0.1,0.1 0.3,0.1 0.2,0 0.4,0.1 0.5,0.2 0.2,0.1 0.3,0.2 0.5,0.4 0.2,0.1 0.3,0.3 0.4,0.4 0.1,0.1 0.1,0.2 0.2,0.4 0,0.1 0.1,0.2 0.1,0.2 0,0 0,0.1 0,0.1 0,0 0,0 0,0 v 0 c 0,-0.2 -0.1,-0.4 -0.1,-0.5 -0.1,-0.2 -0.2,-0.3 -0.3,-0.5 -0.1,-0.2 -0.3,-0.3 -0.4,-0.4 -0.2,-0.1 -0.4,-0.2 -0.5,-0.3 -0.1,-0.1 -0.3,-0.1 -0.4,-0.1 -0.1,0 -0.2,0 -0.3,0 z m 0.6,2.9 h 0.7 c -0.1,0 -0.2,0 -0.3,0 -0.1,0 -0.2,0 -0.3,0 0,-0.1 0,-0.1 -0.1,0 z m 1,0.1 0.2,0.2 c 0,0.1 0.1,0.1 0.1,0.2 0,0.1 0.1,0.1 0.1,0.2 0,0 0,0.1 0.1,0.2 0,0.1 0,0.3 0,0.4 0,0.1 0,0.3 0,0.4 0,0.1 0,0.2 0,0.3 0,0.2 0,0.3 0,0.4 0,0.1 0,0.2 -0.1,0.3 0,0 -0.1,0.1 -0.2,0.2 -0.1,0.1 -0.2,0.2 -0.2,0.2 l -0.3,0.3 c 0.1,-0.1 0.3,-0.2 0.4,-0.3 0.1,-0.1 0.2,-0.2 0.3,-0.3 0.1,-0.1 0.2,-0.3 0.2,-0.4 0,-0.1 0,-0.3 0,-0.5 0,-0.2 0,-0.4 0,-0.6 0,-0.2 0,-0.3 -0.1,-0.5 0,-0.1 -0.1,-0.2 -0.1,-0.2 0,0 0,-0.1 -0.1,-0.1 0,-0.1 -0.1,-0.1 -0.1,-0.2 0,-0.2 -0.1,-0.2 -0.2,-0.2 0,-0.1 0,-0.1 0,0 z"
   id="path2"
   inkscape:connector-curvature="0" />
	<path
   d="M 86.6,165.8 H 79 v -14.7 h 7.6 z m -5.7,-4.2 c 0,0 0.1,0 0.2,0.1 0.1,0 0.1,0 0.2,-0.1 0.1,-0.1 0.1,-0.2 0.2,-0.4 0,-0.1 0.1,-0.3 0.1,-0.3 0,-0.1 0,-0.1 0,-0.2 0,-0.1 0,-0.1 0.1,-0.1 0.1,0 0.1,0 0.2,0.1 0,0.1 0.1,0.1 0.2,0.1 0.1,0 0.2,0 0.3,-0.1 0.1,0 0.3,-0.1 0.6,-0.1 0.3,0 0.5,0 0.6,0 0.1,0 0.2,0 0.3,0 0.1,0 0.2,-0.1 0.3,-0.2 0.1,-0.1 0.2,-0.1 0.2,0 0,0 0,0 0.1,0.1 0,0.1 0.1,0.1 0.1,0.2 0,0.1 0.1,0.1 0.1,0.2 0,0.1 0.1,0.1 0.1,0.2 0,0.1 0.1,0.2 0.1,0.3 0,0.1 0.1,0.2 0.3,0.2 0.2,0 0.3,0 0.3,0 0.1,0 0.1,-0.1 0.1,-0.3 0,-0.1 0,-0.2 -0.1,-0.3 -0.1,-0.1 -0.2,-0.2 -0.2,-0.3 0,0 -0.1,-0.2 -0.1,-0.4 -0.1,-0.2 -0.2,-0.4 -0.3,-0.6 -0.1,-0.2 -0.2,-0.5 -0.3,-0.7 -0.1,-0.2 -0.1,-0.4 -0.2,-0.5 0,-0.1 -0.1,-0.3 -0.2,-0.5 -0.1,-0.2 -0.2,-0.4 -0.3,-0.6 -0.1,-0.2 -0.2,-0.4 -0.2,-0.5 -0.1,-0.2 -0.1,-0.3 -0.1,-0.3 0,0 0,-0.1 0,-0.2 0,-0.1 0,-0.2 0,-0.3 0,-0.1 0,-0.2 -0.1,-0.3 0,-0.1 -0.1,-0.2 -0.1,-0.2 0,0 -0.1,0 -0.2,0 -0.1,0 -0.1,0.1 -0.2,0.1 0,0.1 -0.1,0.1 -0.1,0.2 0,0.1 -0.1,0.1 -0.1,0.2 0,0.1 0,0.2 0,0.3 0,0.1 0,0.1 0,0.2 0,0 0,0.1 -0.1,0.2 0,0.1 -0.1,0.1 -0.1,0.2 0,0.1 -0.1,0.1 -0.1,0.2 0,0.1 0,0.1 0,0.2 0,0.1 -0.1,0.2 -0.2,0.5 -0.1,0.3 -0.3,0.6 -0.4,0.9 -0.1,0.3 -0.1,0.5 -0.2,0.6 0,0.1 0,0.2 0,0.3 0,0.1 0,0.2 -0.1,0.3 0,0.1 -0.1,0.3 -0.2,0.4 0,0.1 -0.1,0.2 -0.2,0.3 -0.1,0.1 -0.1,0.3 -0.2,0.4 -0.1,0.1 -0.1,0.3 -0.1,0.4 -0.1,0 -0.1,0.1 0,0.1 z m 0.9,-0.5 c 0,0.1 -0.1,0.1 -0.1,0.2 -0.1,0.1 -0.1,0.2 -0.1,0.3 0,0 -0.1,0 -0.1,0.1 0,0.1 0,0 0,0.1 0,0 0,0 0,0.1 0.1,-0.1 0.2,-0.2 0.2,-0.2 0.1,-0.3 0.1,-0.4 0.1,-0.6 z m 2.1,-2 c 0.1,0.1 0.1,0.3 0.1,0.4 0,0.1 0,0.3 0,0.4 0,0 0,0.1 -0.1,0.1 -0.1,0 -0.1,0 -0.2,0 -0.1,0 -0.2,0 -0.3,-0.1 -0.1,0 -0.2,0 -0.2,0 -0.2,0 -0.4,0 -0.5,-0.1 0,0 -0.1,0 -0.2,0 -0.1,0 -0.2,0.1 -0.3,0.1 -0.2,0.1 -0.3,0.1 -0.3,0.1 -0.1,0 -0.1,0 -0.2,-0.1 0,0 0,0 0,-0.1 0,-0.1 0.1,-0.1 0.1,-0.2 0,-0.1 0.1,-0.1 0.1,-0.2 0,-0.1 0.1,-0.2 0.1,-0.2 0,-0.1 0.1,-0.2 0.1,-0.4 0.1,-0.2 0.1,-0.3 0.2,-0.5 0.1,-0.2 0.1,-0.3 0.2,-0.5 0,-0.1 0.1,-0.2 0.1,-0.2 0,0 0,-0.1 -0.1,-0.1 0,0 -0.1,-0.1 -0.1,-0.1 0,0 0,0 0,-0.1 0.1,-0.1 0.1,-0.1 0.2,-0.2 0.1,-0.1 0.1,-0.1 0.1,-0.2 0,0 0.1,-0.1 0.1,0 0,0 0.1,0.1 0.2,0.3 0.1,0.2 0.2,0.4 0.3,0.7 0.1,0.2 0.2,0.5 0.3,0.7 0.2,0.3 0.2,0.5 0.3,0.5 z m -2,1.9 1.7,-0.1 c -0.1,0 -0.2,0 -0.4,0 -0.2,0 -0.4,0 -0.6,0 -0.2,0.1 -0.5,0.1 -0.7,0.1 z m 0.5,-1.7 0.1,-0.2 c 0,-0.1 0.1,-0.1 0.1,-0.2 0,-0.1 0,-0.1 0,-0.1 0,-0.1 0.1,-0.1 0.1,-0.2 0,-0.1 0,-0.1 0,-0.2 0,0 -0.1,0.1 -0.1,0.2 0,0.1 -0.1,0.2 -0.1,0.3 0,0.1 -0.1,0.3 -0.1,0.4 z m 0.6,0.4 c 0,-0.1 0,-0.1 -0.1,-0.2 0,-0.1 -0.1,-0.1 -0.1,-0.1 0,0 -0.1,0 -0.1,0 h -0.1 z m 2.4,0.7 c 0,0 0,0 0,-0.1 0,-0.1 -0.1,-0.3 -0.2,-0.5 -0.1,-0.2 -0.2,-0.4 -0.3,-0.7 -0.1,-0.3 -0.2,-0.6 -0.3,-0.8 -0.3,-0.7 -0.6,-1.5 -1,-2.3 0.3,0.8 0.6,1.5 0.8,2.2 0.1,0.3 0.2,0.6 0.3,0.8 0.1,0.3 0.2,0.5 0.3,0.7 0.1,0.2 0.1,0.4 0.2,0.5 0.1,0.2 0.1,0.2 0.2,0.2 z"
   id="path4"
   inkscape:connector-curvature="0" />
	<path
   d="M 93.6,165.8 H 86 v -14.7 h 7.6 z m -5.1,-10.2 c -0.1,0 -0.2,0 -0.3,0.1 -0.1,0.1 -0.2,0.1 -0.2,0.2 0,0.1 0,0.2 0,0.2 0,0.1 0.1,0.1 0.1,0.2 0,0 0,0.1 0,0.3 0,0.2 0,0.5 0,0.7 0,0.3 0,0.5 0,0.8 0,0.3 0,0.4 0,0.5 0,0.1 0,0.3 0,0.6 0,0.3 0,0.6 0.1,0.9 0,0.3 0,0.6 0.1,0.9 0,0.3 0,0.4 0,0.4 0,0.1 0.1,0.1 0.2,0.2 0.1,0 0.2,0.1 0.2,0.1 0,0 0.2,0 0.4,0 0.3,0 0.6,0 0.9,0 0.3,0 0.6,0 0.9,0 0.3,0 0.4,0 0.4,0 0.1,0 0.1,0 0.2,0 0,0 0.1,0 0.2,0 0.1,0 0.1,0 0.3,-0.1 0.1,-0.1 0.2,-0.1 0.2,-0.3 0,-0.1 0,-0.3 -0.1,-0.4 -0.1,-0.1 -0.2,-0.2 -0.3,-0.2 -0.1,0 -0.3,0 -0.5,0.1 -0.2,0.1 -0.4,0.1 -0.5,0.1 H 89 c 0,0 -0.1,0 -0.2,0 -0.1,0 -0.1,0 -0.1,-0.1 0,0 0,-0.2 0,-0.4 0,-0.2 0,-0.4 0,-0.4 0,0 0,-0.1 0,-0.2 0,-0.1 0,-0.3 0,-0.5 0,-0.2 0,-0.4 0,-0.6 0,-0.2 0,-0.4 0,-0.6 v -1.8 c 0.1,-0.1 0.1,-0.2 0.1,-0.4 -0.1,-0.2 -0.2,-0.3 -0.3,-0.3 z m 0.5,0.3 c 0,0.8 0,1.5 0,2.2 0,0.3 0,0.5 0,0.8 0,0.3 0,0.5 0,0.7 0,0.2 0,0.4 0,0.5 0,0.1 0,0.2 0,0.2 h 0.1 z m 2.4,6.1 h -1.7 c 0.1,0 0.2,0.1 0.4,0.1 0.2,0 0.4,0 0.6,0 0.1,-0.1 0.4,-0.1 0.7,-0.1 z m 0.9,-0.7 c 0,0.1 -0.1,0.2 -0.1,0.2 0,0.1 -0.1,0.1 -0.1,0.2 0,0 -0.1,0.1 -0.1,0.1 -0.1,0 -0.1,0 -0.2,0 0,0 -0.1,0 -0.1,0 0.1,0.1 0.2,0.1 0.3,0.1 0.1,0 0.1,-0.1 0.2,-0.1 0,-0.1 0.1,-0.3 0.1,-0.5 z"
   id="path6"
   inkscape:connector-curvature="0" />
	<path
   d="m 100.5,165.8 h -7.6 v -14.7 h 7.6 z m -5.1,-10.2 c -0.1,0 -0.2,0 -0.3,0.1 -0.1,0.1 -0.2,0.1 -0.2,0.2 0,0.1 0,0.2 0,0.2 0,0.1 0.1,0.1 0.1,0.2 0,0 0,0.1 0,0.3 0,0.2 0,0.5 0,0.7 0,0.3 0,0.5 0,0.8 0,0.3 0,0.4 0,0.5 0,0.1 0,0.3 0,0.6 0,0.3 0,0.6 0.1,0.9 0,0.3 0,0.6 0.1,0.9 0,0.3 0,0.4 0,0.4 0,0.1 0.1,0.1 0.2,0.2 0.1,0 0.2,0.1 0.2,0.1 0,0 0.2,0 0.4,0 0.3,0 0.6,0 0.9,0 0.3,0 0.6,0 0.9,0 0.3,0 0.4,0 0.4,0 0.1,0 0.1,0 0.2,0 0,0 0.1,0 0.2,0 0.1,0 0.1,0 0.3,-0.1 0.1,-0.1 0.2,-0.1 0.2,-0.3 0,-0.1 0,-0.3 -0.1,-0.4 -0.1,-0.1 -0.2,-0.2 -0.3,-0.2 -0.1,0 -0.3,0 -0.5,0.1 -0.2,0.1 -0.4,0.1 -0.5,0.1 H 96 c 0,0 -0.1,0 -0.2,0 -0.1,0 -0.1,0 -0.1,-0.1 0,0 0,-0.2 0,-0.4 0,-0.2 0,-0.4 0,-0.4 0,0 0,-0.1 0,-0.2 0,-0.1 0,-0.3 0,-0.5 0,-0.2 0,-0.4 0,-0.6 0,-0.2 0,-0.4 0,-0.6 v -1.8 c 0.1,-0.1 0.1,-0.2 0.1,-0.4 -0.2,-0.2 -0.3,-0.3 -0.4,-0.3 z m 0.5,0.3 c 0,0.8 0,1.5 0,2.2 0,0.3 0,0.5 0,0.8 0,0.3 0,0.5 0,0.7 0,0.2 0,0.4 0,0.5 0,0.1 0,0.2 0,0.2 H 96 Z m 2.4,6.1 h -1.7 c 0.1,0 0.2,0.1 0.4,0.1 0.2,0 0.4,0 0.6,0 0.2,-0.1 0.4,-0.1 0.7,-0.1 z m 0.9,-0.7 c 0,0.1 -0.1,0.2 -0.1,0.2 0,0.1 -0.1,0.1 -0.1,0.2 0,0 -0.1,0.1 -0.1,0.1 -0.1,0 -0.1,0 -0.2,0 0,0 -0.1,0 -0.1,0 0.1,0.1 0.2,0.1 0.3,0.1 0.1,0 0.1,-0.1 0.2,-0.1 0.1,-0.1 0.1,-0.3 0.1,-0.5 z"
   id="path8"
   inkscape:connector-curvature="0" />
	<path
   d="M 107.6,165.8 H 100 v -14.7 h 7.6 z m -3,-9.2 c 0.1,0 0.2,0 0.4,0 0.2,0 0.3,0 0.4,0 0.1,0 0.2,-0.1 0.3,-0.1 0.1,-0.1 0.1,-0.2 0.1,-0.2 0,-0.1 0,-0.2 -0.1,-0.3 -0.1,-0.1 -0.1,-0.2 -0.2,-0.3 -0.1,0 -0.1,0 -0.3,0 -0.1,0 -0.2,0 -0.3,0.1 0,0 -0.1,0 -0.2,0.1 -0.1,0 -0.2,0 -0.3,0 -0.1,0 -0.2,0 -0.3,0 -0.1,0 -0.2,0 -0.2,0 -0.1,0 -0.2,0 -0.3,0 -0.2,0 -0.4,0 -0.6,0 -0.2,0 -0.4,0 -0.6,0 -0.2,0 -0.3,0 -0.3,0 -0.1,0 -0.1,0.1 -0.1,0.3 0,0.1 -0.1,0.3 -0.1,0.5 0,0.2 0,0.3 0,0.5 0,0.2 0,0.3 0,0.4 0,0.1 0,0.2 0,0.3 0,0.1 0,0.3 0,0.4 0,0.1 0,0.2 0,0.4 0,0.1 0,0.2 0,0.2 0,0.1 0,0.2 -0.1,0.3 0,0.2 0,0.3 0,0.5 0,0.1 0,0.2 0,0.4 0,0.2 0,0.4 0,0.6 0,0.2 0,0.4 0.1,0.5 0,0.2 0,0.3 0,0.3 0,0 0,0.1 0.1,0.2 0.1,0.1 0.1,0.2 0.2,0.2 0,0 0.2,0 0.4,0 0.2,0 0.5,0 0.8,0 0.3,0 0.5,0 0.8,0 0.2,0 0.4,0 0.4,0 0,0 0.1,0 0.2,0 0.1,0 0.2,0 0.3,0.1 0.1,0 0.2,0 0.3,0 0.1,0 0.1,0 0.2,0 0.1,0 0.2,0 0.3,-0.1 0.1,-0.1 0.2,-0.2 0.2,-0.3 0,-0.1 0,-0.2 0,-0.4 0,-0.2 -0.1,-0.2 -0.2,-0.3 -0.1,0 -0.3,0 -0.5,0.1 -0.2,0.1 -0.4,0.1 -0.6,0.2 -0.1,0 -0.2,0 -0.4,0 -0.2,0 -0.4,0 -0.5,-0.1 -0.2,0 -0.4,0 -0.5,-0.1 -0.2,0 -0.3,0 -0.3,0 -0.1,0 -0.2,0 -0.3,0.1 -0.1,0 -0.2,0 -0.3,0 -0.1,0 -0.1,-0.1 0,-0.2 0,-0.1 0,-0.2 0,-0.2 0,0 0,-0.1 0,-0.2 0,-0.1 0,-0.2 -0.1,-0.2 0,0 0,-0.1 0,-0.2 0,-0.1 0,-0.3 0,-0.4 0,-0.1 0,-0.3 0,-0.4 0,-0.1 0,-0.2 0.1,-0.2 0,0 0.1,0 0.2,0 0.1,0 0.2,0 0.2,0 0,0 0.1,0 0.2,0 0.1,0 0.2,0 0.4,0 0.1,0 0.3,0 0.4,0 0.1,0 0.2,0 0.2,0 0.1,0 0.1,0.1 0.2,0.1 0,0 0.1,0 0.3,0 0.2,0 0.3,-0.1 0.3,-0.2 0,-0.1 0.1,-0.2 0.1,-0.4 0,-0.2 0,-0.3 -0.1,-0.3 -0.1,0 -0.2,-0.1 -0.3,-0.1 -0.1,0 -0.2,0 -0.3,0.1 -0.1,0.1 -0.2,0.1 -0.3,0.1 0,0 -0.1,0 -0.2,0 -0.1,0 -0.2,0 -0.3,0 -0.1,0 -0.2,0 -0.3,0 -0.1,0 -0.1,0 -0.2,0 0,0 -0.1,0 -0.2,0 -0.1,0 -0.1,0 -0.2,0 -0.1,0 -0.1,0 -0.2,0 v -0.8 c 0,-0.2 0,-0.4 0,-0.6 0,-0.2 0,-0.3 0,-0.3 0.4,0 0.7,0 1,0 0.3,0 0.5,0 0.7,0 0.3,-0.1 0.4,-0.1 0.5,-0.1 z m -0.8,0.3 h -1.1 c 0,0.1 0,0.2 0,0.3 v 0.4 c 0,0.1 0,0.2 0,0.2 0,0 0,0.1 0,0.1 0.2,0 0.4,0 0.6,0 0.2,0 0.3,0 0.4,0 0.1,0 0.2,0 0.2,0 0,0 0,0 -0.1,0 -0.1,0 -0.1,0 -0.2,0 -0.1,0 -0.2,0 -0.3,0 -0.1,0 -0.1,-0.1 -0.2,-0.1 0,-0.1 -0.1,-0.3 -0.1,-0.4 0,-0.1 0,-0.2 0.1,-0.2 0,0 0.1,0 0.2,0 0.1,0 0.2,0 0.3,-0.1 -0.1,-0.2 0.1,-0.2 0.2,-0.2 z m -1.2,2.4 c 0,0 0,0.1 0,0.2 0,0.1 0,0.3 0,0.4 0,0.2 0,0.4 0,0.6 h 0.3 c 0,0 -0.1,0.1 -0.1,0.1 0,0 0,0 -0.1,-0.1 0,0 0,-0.1 0,-0.3 0,-0.1 0,-0.3 -0.1,-0.4 0,-0.1 0,-0.2 -0.1,-0.3 0.2,0 0.2,-0.1 0.1,-0.2 z m 0.3,0.2 c 0,0 0.1,0 0.2,0 0.1,0 0.2,0 0.3,0 0.1,0 0.2,0 0.3,0 0.1,0 0.1,0 0.1,0 0,0 -0.1,0 -0.2,0 -0.1,0 -0.2,0 -0.3,0 -0.2,-0.1 -0.2,-0.1 -0.4,0 0,0 0,0 0,0 z m 1.5,-1.6 0.3,0.2 c -0.1,-0.1 -0.1,-0.1 -0.2,-0.2 0,0 0,0 -0.1,0 z"
   id="path10"
   inkscape:connector-curvature="0" />
	<path
   d="m 114.8,165.8 h -7.6 v -14.7 h 7.6 z m -5.7,-10.2 c -0.1,0 -0.1,0.1 -0.1,0.3 0,0.2 0,0.3 0,0.4 0,0.1 0,0.2 0,0.6 0,0.4 0,0.7 0,1 0,0.4 0,0.7 0,1 0,0.3 0,0.5 0,0.5 0,0 0,0.1 0,0.3 0,0.2 0,0.3 0,0.5 0,0.2 0,0.4 0,0.6 0,0.2 0,0.3 0.1,0.4 0.1,0.1 0.1,0.2 0.1,0.2 0,0 0,0 0.1,0.1 0.1,0 0.2,0 0.3,-0.1 0.1,-0.1 0.1,-0.2 0.2,-0.3 0,-0.1 0,-0.2 -0.1,-0.3 -0.1,-0.1 -0.1,-0.2 -0.1,-0.3 0,0 0,-0.1 0,-0.2 0,-0.1 0,-0.2 0,-0.3 0,-0.1 0,-0.2 0,-0.3 0,-0.1 0,-0.2 0,-0.2 0,-0.1 0,-0.2 0,-0.3 0,-0.1 0,-0.2 0.1,-0.2 0,0 0.2,0 0.4,0 0.2,0 0.4,0 0.5,0 0.1,0 0.2,0 0.3,-0.1 0.1,0 0.2,0 0.3,0 0.1,0 0.1,0.1 0.2,0.3 0.1,0.1 0.1,0.3 0.2,0.5 0.1,0.2 0.1,0.3 0.2,0.5 0.1,0.2 0.1,0.3 0.2,0.4 0,0.1 0.1,0.2 0.1,0.4 0.1,0.1 0.1,0.3 0.2,0.4 0.1,0.1 0.1,0.2 0.2,0.3 0.1,0.1 0.1,0.1 0.2,0.1 0.2,-0.1 0.2,-0.1 0.3,-0.2 0,-0.1 0,-0.2 0,-0.3 0,0 -0.1,-0.1 -0.1,-0.2 -0.1,-0.1 -0.1,-0.2 -0.2,-0.3 -0.1,-0.1 -0.2,-0.2 -0.3,-0.4 -0.1,-0.1 -0.1,-0.2 -0.2,-0.4 -0.2,-0.4 -0.2,-0.7 -0.2,-0.8 0,0 0,-0.1 0,-0.1 0,0 0,0 0,-0.1 0,0 0.1,-0.1 0.2,-0.2 0.1,-0.1 0.2,-0.2 0.4,-0.4 0.1,-0.2 0.2,-0.3 0.3,-0.5 0.1,-0.2 0.1,-0.3 0.1,-0.5 0,-0.3 -0.1,-0.6 -0.2,-0.8 -0.1,-0.2 -0.3,-0.4 -0.4,-0.5 -0.1,-0.1 -0.2,-0.2 -0.3,-0.3 -0.1,-0.1 -0.2,-0.1 -0.3,-0.1 -0.1,0 -0.1,-0.1 -0.1,-0.1 0,0 0,0 -0.1,0 0,0 -0.1,0 -0.3,0 -0.2,0 -0.3,0 -0.5,0 -0.2,0 -0.3,0 -0.5,0 -0.2,0 -0.3,0 -0.4,0 -0.1,0 -0.3,0 -0.5,0 -0.1,0 -0.3,0 -0.3,0 z m 0.7,3.7 c 0,0 0,0.1 0,0.2 0,0.1 0,0.3 0,0.5 0,0.2 0,0.3 0,0.5 0,0.2 0,0.3 0,0.3 0,0.1 0,0.2 0,0.3 0,0.1 0,0.1 -0.1,0.2 -0.1,0.1 -0.1,0.1 -0.1,0.1 0,0 0,0 -0.1,0 0,0 -0.1,0 -0.2,0 -0.1,0 -0.1,0 -0.1,-0.1 0.1,0.1 0.1,0.1 0.2,0.2 0.1,0.1 0.2,0.1 0.3,0 0,0 0.1,-0.1 0.1,-0.3 0,-0.1 0.1,-0.3 0.1,-0.4 0,-0.2 0,-0.3 0.1,-0.5 0,-0.2 0,-0.3 0,-0.4 0,-0.1 0,-0.2 0,-0.3 0,-0.1 0,-0.2 0,-0.2 0,-0.1 0,-0.1 0,-0.2 l 0.1,0.1 c 0.1,0.1 0.2,0.1 0.3,0.1 0.1,0 0.1,0 0,-0.1 -0.1,-0.1 -0.1,-0.1 -0.2,-0.1 -0.1,0 -0.2,0 -0.2,-0.1 -0.1,0 -0.2,-0.1 -0.2,-0.1 -0.1,0 -0.1,0 -0.1,0.1 0,0.1 0.1,0.2 0.1,0.2 z m 1.7,-3 c 0.2,0 0.3,0.1 0.5,0.2 0.1,0.1 0.2,0.1 0.2,0.3 0.1,0.1 0.1,0.3 0.1,0.4 0,0.1 0,0.3 -0.1,0.4 -0.1,0.2 -0.2,0.3 -0.3,0.4 -0.1,0.1 -0.2,0.2 -0.4,0.2 -0.2,0 -0.3,0 -0.5,0 -0.1,0 -0.2,0 -0.3,0 -0.1,0 -0.2,0 -0.3,-0.1 -0.1,0 -0.2,0 -0.3,0 -0.1,0 -0.1,0 -0.2,0 0,0 -0.1,0 -0.2,0.1 -0.1,0.1 -0.2,0.1 -0.2,0 0,0 0,-0.1 0,-0.2 0,-0.1 0.1,-0.2 0.1,-0.2 0,0 0,-0.1 0,-0.1 0,0 0,-0.1 0,-0.2 0,0 0,-0.1 0,-0.2 0,-0.1 0,-0.2 0,-0.3 0,-0.1 0,-0.2 0,-0.2 0,-0.1 0,-0.1 0,-0.1 0,-0.1 0,-0.2 0,-0.2 0,0 0.1,0 0.3,0 0.1,0 0.1,0 0.1,0 0,0 0.1,0 0.2,0 0.1,0 0.1,0 0.2,0 0.1,0 0.1,0 0.2,0 0.1,0 0.2,0 0.4,0 0.2,0 0.3,0 0.3,0 0,0 0.1,0 0.1,-0.1 -0.1,-0.1 0,-0.1 0.1,-0.1 z m -1.7,0.5 c 0,0 0,0.1 0,0.1 0,0.1 0.1,0.1 0.1,0.1 0,0 0,0.1 0.1,0.1 v 0 c 0,0 -0.1,-0.1 -0.1,-0.2 -0.1,-0.1 -0.1,-0.2 0,-0.2 0,0 0.1,0 0.2,0 h 0.2 -0.3 c 0,0 -0.1,0 -0.2,0.1 0,-0.1 0,-0.1 0,0 z m 0.1,0.6 c 0,0 0,0.1 0,0.1 0,0 0,0.1 0,0.1 l 0.2,0.1 h 0.6 c -0.1,0 -0.2,0 -0.3,-0.1 -0.1,0 -0.1,0 -0.2,-0.1 -0.1,0 -0.1,-0.1 -0.1,-0.1 z m 2,-2.2 c 0.2,0.1 0.4,0.2 0.6,0.4 0.2,0.1 0.3,0.3 0.4,0.4 0.1,0.1 0.2,0.3 0.3,0.5 0.1,0.4 0.1,0.7 0,1.1 0,0.4 -0.2,0.6 -0.3,0.8 -0.2,0.1 -0.3,0.2 -0.4,0.3 -0.1,0.1 -0.2,0.2 -0.2,0.2 0,0 0,0.1 0.1,0.3 0.1,0.1 0.1,0.3 0.3,0.5 0.1,0.2 0.2,0.4 0.4,0.7 -0.1,-0.2 -0.2,-0.5 -0.3,-0.6 -0.1,-0.2 -0.1,-0.3 -0.2,-0.5 0,-0.1 -0.1,-0.2 0,-0.3 0,0 0.1,-0.1 0.1,-0.2 0.1,-0.1 0.2,-0.2 0.3,-0.4 0.1,-0.1 0.2,-0.3 0.3,-0.5 0.1,-0.2 0.1,-0.4 0.1,-0.6 0,-0.2 0,-0.4 -0.1,-0.6 0,-0.2 -0.1,-0.3 -0.1,-0.5 -0.1,-0.2 -0.2,-0.3 -0.4,-0.5 -0.3,-0.1 -0.6,-0.3 -0.9,-0.5 z m 1,6.4 c 0,0.1 0,0.1 0,0 0.2,0 0.3,-0.1 0.3,-0.2 0.1,-0.1 0.1,-0.2 0.1,-0.3 0,-0.1 0,-0.1 0,-0.1 v 0.3 c 0,0.1 0,0.1 -0.1,0.2 0,0.1 0,0.1 -0.1,0.1 -0.1,0 -0.1,0 -0.2,0 0.1,0 0,0 0,0 z"
   id="path12"
   inkscape:connector-curvature="0" />
	<path
   d="m 122.1,165.8 h -7.6 v -14.7 h 7.6 z m -3.8,-7.8 c -0.1,0 -0.1,0 -0.1,0 0,0 0,0 0,-0.1 0,-0.1 0,-0.1 0,-0.1 0,0 0,-0.1 0,-0.2 0,0 -0.1,-0.1 -0.1,-0.2 -0.1,-0.1 -0.2,-0.2 -0.3,-0.3 -0.1,-0.1 -0.2,-0.2 -0.3,-0.3 -0.1,-0.1 -0.1,-0.2 -0.1,-0.2 0,0 -0.1,-0.1 -0.1,-0.2 0,-0.1 -0.1,-0.2 -0.1,-0.3 0,-0.1 -0.1,-0.2 -0.1,-0.3 -0.1,-0.1 -0.1,-0.2 -0.1,-0.2 -0.1,-0.1 -0.2,-0.1 -0.3,-0.1 -0.1,0 -0.2,0.1 -0.2,0.2 0,0.1 0,0.2 0.1,0.4 0.1,0.2 0.2,0.3 0.3,0.5 0.1,0.2 0.2,0.4 0.4,0.6 0.2,0.2 0.2,0.3 0.3,0.4 0.2,0.2 0.3,0.4 0.5,0.6 0.1,0.2 0.2,0.3 0.2,0.3 0,0 0,0.1 0,0.3 0,0.2 0,0.4 0,0.6 0,0.2 0,0.4 0,0.6 0,0.2 0,0.3 0,0.4 0,0.1 0,0.1 0,0.3 0,0.1 0,0.2 0,0.3 0,0.1 0,0.2 0.1,0.3 0.1,0.1 0.2,0.1 0.3,0.1 0.1,0 0.2,0 0.3,-0.1 0,-0.1 0.1,-0.2 0,-0.3 0,-0.1 0,-0.2 0,-0.3 0,-0.1 0,-0.2 -0.1,-0.3 0,0 0,-0.2 -0.1,-0.3 0,-0.2 0,-0.3 0,-0.5 0,-0.2 0,-0.4 0,-0.6 0,-0.2 0,-0.3 0,-0.4 0,-0.1 0.1,-0.2 0.2,-0.4 0.1,-0.2 0.3,-0.4 0.4,-0.6 0.2,-0.2 0.3,-0.4 0.5,-0.6 0.2,-0.2 0.3,-0.3 0.3,-0.4 0.1,-0.1 0.2,-0.3 0.4,-0.4 0.1,-0.2 0.2,-0.3 0.2,-0.4 0,-0.1 0,-0.2 -0.1,-0.2 -0.1,-0.1 -0.2,-0.1 -0.2,-0.2 0,0 -0.1,0 -0.2,0 -0.1,0.1 -0.2,0.2 -0.3,0.3 0,0.1 -0.1,0.2 -0.2,0.3 -0.1,0.1 -0.2,0.3 -0.3,0.4 -0.1,0.1 -0.2,0.3 -0.2,0.4 -0.1,0.1 -0.1,0.2 -0.1,0.3 0,0 -0.1,0.1 -0.2,0.2 -0.1,0.1 -0.1,0.2 -0.2,0.3 -0.1,0.1 -0.1,0.2 -0.2,0.3 -0.3,0.1 -0.3,0.1 -0.3,0.1 z m -0.9,-2.2 0.8,1.3 c 0,0 -0.1,-0.1 -0.1,-0.2 -0.1,-0.1 -0.2,-0.3 -0.3,-0.4 -0.2,-0.2 -0.3,-0.4 -0.4,-0.7 z m 3.3,0.4 c -0.3,0.4 -0.6,0.8 -0.8,1.2 -0.2,0.3 -0.4,0.6 -0.6,0.8 -0.2,0.2 -0.3,0.4 -0.3,0.4 0,0 0,0.2 0,0.4 0,0.3 0,0.5 0,0.8 0,0.4 0,0.8 0,1.2 0,0.1 -0.1,0.1 -0.1,0.1 0,0.1 -0.1,0.1 -0.1,0.2 l -0.1,0.1 c 0.1,0 0.1,-0.1 0.2,-0.1 0,-0.1 0.1,-0.1 0.1,-0.2 0,-0.1 0.1,-0.2 0.1,-0.4 0,-0.1 0,-0.3 0,-0.6 0,-0.3 0,-0.5 0,-0.8 v -0.9 c 0.3,-0.4 0.5,-0.8 0.8,-1.1 0.2,-0.3 0.4,-0.6 0.5,-0.8 0.2,-0.1 0.3,-0.3 0.3,-0.3 z"
   id="path14"
   inkscape:connector-curvature="0" />
</g>
</svg>