<?xml version="1.0" encoding="UTF-8" standalone="no"?>
<!-- Generator: Adobe Illustrator 24.2.0, SVG Export Plug-In . SVG Version: 6.00 Build 0)  -->

<svg
   xmlns:dc="http://purl.org/dc/elements/1.1/"
   xmlns:cc="http://creativecommons.org/ns#"
   xmlns:rdf="http://www.w3.org/1999/02/22-rdf-syntax-ns#"
   xmlns:svg="http://www.w3.org/2000/svg"
   xmlns="http://www.w3.org/2000/svg"
   xmlns:sodipodi="http://sodipodi.sourceforge.net/DTD/sodipodi-0.dtd"
   xmlns:inkscape="http://www.inkscape.org/namespaces/inkscape"
   inkscape:version="0.92.4 (5da689c313, 2019-01-14)"
   height="48.599998"
   width="79.900002"
   sodipodi:docname="home.svg"
   xml:space="preserve"
   viewBox="0 0 71.910001 43.739998"
   y="0px"
   x="0px"
   id="Layer_1"
   version="1.1"><metadata
     id="metadata21"><rdf:RDF><cc:Work
         rdf:about=""><dc:format>image/svg+xml</dc:format><dc:type
           rdf:resource="http://purl.org/dc/dcmitype/StillImage" /><dc:title /></cc:Work></rdf:RDF></metadata><defs
     id="defs19" /><sodipodi:namedview
     pagecolor="#ffffff"
     bordercolor="#666666"
     borderopacity="1"
     objecttolerance="10"
     gridtolerance="10"
     guidetolerance="10"
     inkscape:pageopacity="0"
     inkscape:pageshadow="2"
     inkscape:window-width="1920"
     inkscape:window-height="1001"
     id="namedview17"
     showgrid="false"
     inkscape:pagecheckerboard="true"
     fit-margin-top="0"
     fit-margin-left="0"
     fit-margin-right="0"
     fit-margin-bottom="0"
     inkscape:zoom="11.313708"
     inkscape:cx="32.013504"
     inkscape:cy="26.046112"
     inkscape:window-x="-9"
     inkscape:window-y="-9"
     inkscape:window-maximized="1"
     inkscape:current-layer="Layer_1"
     scale-x="0.9" /><g
     id="g508"
     transform="matrix(1.0012143,-0.10448595,0.03502701,0.99391383,-0.68199981,3.1417243)"
     style="fill:none;stroke:#000000;stroke-linecap:round;stroke-linejoin:round"
     inkscape:label="Hershey Text"><g
       id="g506"
       transform="translate(12.599999,25.739998)"><path
         id="path498"
         transform="scale(0.0156,-0.0156)"
         style="stroke-width:0.03651in"
         d="m 31.5,158 63,94 94.5,158 31,62 32,95 v 63 L 220,662 158,630 126,567 94.5,441 63,252 31.5,0 m 0,0 31.5,94.5 31.5,63.5 63.5,94 62,32 h 64 l 31,-32 V 189 L 284,94.5 v -63 L 315,0 h 31 l 64,31.5 31,31.5 63,95"
         inkscape:connector-curvature="0" /><path
         id="path500"
         transform="matrix(0.0156,0,0,-0.0156,7.3632,0)"
         style="stroke-width:0.03651in"
         d="M 220,284 H 158 L 94.5,252 63,220 31.5,158 V 94.5 L 63,31.5 126,0 h 63 l 63,31.5 32,31.5 31,63 v 63 l -31,63 -64,32 -31,-32 v -63 l 31,-63 64,-31.5 h 94 l 63,31.5 31,32"
         inkscape:connector-curvature="0" /><path
         id="path502"
         transform="matrix(0.0156,0,0,-0.0156,14.2428,0)"
         style="stroke-width:0.03651in"
         d="m 31.5,158 63,94 63.5,32 31,-32 V 220 L 158,94.5 126,0 m 32,94.5 31,63.5 63,94 63,32 h 63 l 32,-32 V 220 L 378,94.5 346,0 m 32,94.5 32,63.5 62,94 64,32 h 62 l 32,-32 V 189 L 598,94.5 v -63 L 630,0 h 32 l 62,31.5 32,31.5 63,95"
         inkscape:connector-curvature="0" /><path
         id="path504"
         transform="matrix(0.0156,0,0,-0.0156,26.535601,0)"
         style="stroke-width:0.03651in"
         d="m 63,63 63,31.5 32,31.5 31,63 v 63 l -31,32 H 126 L 63,252 31.5,189 V 94.5 L 63,31.5 126,0 h 63 l 63,31.5 32,31.5 62,95"
         inkscape:connector-curvature="0" /></g></g></svg>